<mxfile host="65bd71144e">
    <diagram id="bvMxqJy8REenpndCrTQX" name="Page-1">
        <mxGraphModel dx="1045" dy="1632" grid="1" gridSize="10" guides="1" tooltips="1" connect="1" arrows="1" fold="1" page="1" pageScale="1" pageWidth="850" pageHeight="1100" background="none" math="0" shadow="1">
            <root>
                <mxCell id="0"/>
                <mxCell id="1" parent="0"/>
                <mxCell id="8" value="Topic&amp;nbsp; 208.2" style="ellipse;whiteSpace=wrap;html=1;align=center;treeFolding=1;treeMoving=1;newEdgeStyle={&quot;edgeStyle&quot;:&quot;entityRelationEdgeStyle&quot;,&quot;startArrow&quot;:&quot;none&quot;,&quot;endArrow&quot;:&quot;none&quot;,&quot;segment&quot;:10,&quot;curved&quot;:1};fillColor=#647687;fontColor=#CCCCCC;strokeColor=#314354;shadow=1;sketch=0;" parent="1" vertex="1">
                    <mxGeometry x="320" y="-515" width="130" height="60" as="geometry"/>
                </mxCell>
                <mxCell id="78" value="&lt;pre style=&quot;box-sizing: border-box ; font-family: , , &amp;quot;sf mono&amp;quot; , &amp;quot;menlo&amp;quot; , &amp;quot;consolas&amp;quot; , &amp;quot;liberation mono&amp;quot; , monospace ; font-size: 13.6px ; margin-top: 0px ; margin-bottom: 0px ; overflow-wrap: normal ; padding: 16px ; overflow: auto ; line-height: 1.45 ; border-radius: 6px ; word-break: normal ; color: rgb(201 , 209 , 217)&quot;&gt;ssl&lt;/pre&gt;" style="whiteSpace=wrap;html=1;rounded=1;arcSize=50;align=center;verticalAlign=middle;strokeWidth=1;autosize=1;spacing=4;treeFolding=1;treeMoving=1;newEdgeStyle={&quot;edgeStyle&quot;:&quot;entityRelationEdgeStyle&quot;,&quot;startArrow&quot;:&quot;none&quot;,&quot;endArrow&quot;:&quot;none&quot;,&quot;segment&quot;:10,&quot;curved&quot;:1};fillColor=#647687;fontColor=#CCCCCC;strokeColor=#314354;shadow=1;sketch=0;" parent="1" vertex="1">
                    <mxGeometry x="330" y="-650" width="94" height="37" as="geometry"/>
                </mxCell>
                <mxCell id="79" value="" style="edgeStyle=entityRelationEdgeStyle;startArrow=none;endArrow=none;segment=10;curved=1;exitX=0.5;exitY=0;exitDx=0;exitDy=0;fillColor=#647687;strokeColor=#314354;fontColor=#CCCCCC;shadow=1;sketch=0;entryX=0.5;entryY=1;entryDx=0;entryDy=0;" parent="1" source="8" target="78" edge="1">
                    <mxGeometry relative="1" as="geometry">
                        <mxPoint x="500" y="-465" as="sourcePoint"/>
                    </mxGeometry>
                </mxCell>
                <mxCell id="83" value="&lt;pre style=&quot;box-sizing: border-box ; font-family: , , &amp;quot;sf mono&amp;quot; , &amp;quot;menlo&amp;quot; , &amp;quot;consolas&amp;quot; , &amp;quot;liberation mono&amp;quot; , monospace ; font-size: 13.6px ; margin-top: 0px ; margin-bottom: 0px ; overflow-wrap: normal ; padding: 16px ; overflow: auto ; line-height: 1.45 ; border-radius: 6px ; word-break: normal ; color: rgb(201 , 209 , 217)&quot;&gt;tls&lt;/pre&gt;" style="whiteSpace=wrap;html=1;rounded=1;arcSize=50;align=center;verticalAlign=middle;strokeWidth=1;autosize=1;spacing=4;treeFolding=1;treeMoving=1;newEdgeStyle={&quot;edgeStyle&quot;:&quot;entityRelationEdgeStyle&quot;,&quot;startArrow&quot;:&quot;none&quot;,&quot;endArrow&quot;:&quot;none&quot;,&quot;segment&quot;:10,&quot;curved&quot;:1};fillColor=#647687;fontColor=#CCCCCC;strokeColor=#314354;shadow=1;sketch=0;" parent="1" vertex="1">
                    <mxGeometry x="490" y="-588" width="97" height="38" as="geometry"/>
                </mxCell>
                <mxCell id="84" value="" style="edgeStyle=entityRelationEdgeStyle;startArrow=none;endArrow=none;segment=10;curved=1;fillColor=#647687;strokeColor=#314354;shadow=1;fontColor=#CCCCCC;sketch=0;" parent="1" source="8" target="83" edge="1">
                    <mxGeometry relative="1" as="geometry">
                        <mxPoint x="400.9619407771256" y="-456.21320343559637" as="sourcePoint"/>
                    </mxGeometry>
                </mxCell>
                <mxCell id="88" value="CA Root" style="whiteSpace=wrap;html=1;rounded=1;arcSize=50;align=center;verticalAlign=middle;strokeWidth=1;autosize=1;spacing=4;treeFolding=1;treeMoving=1;newEdgeStyle={&quot;edgeStyle&quot;:&quot;entityRelationEdgeStyle&quot;,&quot;startArrow&quot;:&quot;none&quot;,&quot;endArrow&quot;:&quot;none&quot;,&quot;segment&quot;:10,&quot;curved&quot;:1};fillColor=#647687;fontColor=#CCCCCC;strokeColor=#314354;shadow=1;sketch=0;" parent="1" vertex="1">
                    <mxGeometry x="180" y="-315" width="90" height="35" as="geometry"/>
                </mxCell>
                <mxCell id="89" value="" style="edgeStyle=entityRelationEdgeStyle;startArrow=none;endArrow=none;segment=10;curved=1;fillColor=#647687;strokeColor=#314354;shadow=1;fontColor=#CCCCCC;sketch=0;entryX=0.5;entryY=0;entryDx=0;entryDy=0;exitX=0;exitY=0.75;exitDx=0;exitDy=0;" parent="1" source="106" target="88" edge="1">
                    <mxGeometry relative="1" as="geometry">
                        <mxPoint x="620" y="-108" as="sourcePoint"/>
                    </mxGeometry>
                </mxCell>
                <mxCell id="93" value="openssl" style="whiteSpace=wrap;html=1;rounded=1;arcSize=50;align=center;verticalAlign=middle;strokeWidth=1;autosize=1;spacing=4;treeFolding=1;treeMoving=1;newEdgeStyle={&quot;edgeStyle&quot;:&quot;entityRelationEdgeStyle&quot;,&quot;startArrow&quot;:&quot;none&quot;,&quot;endArrow&quot;:&quot;none&quot;,&quot;segment&quot;:10,&quot;curved&quot;:1};fillColor=#647687;fontColor=#CCCCCC;strokeColor=#314354;shadow=1;sketch=0;" parent="1" vertex="1">
                    <mxGeometry x="500" y="-465" width="95" height="40" as="geometry"/>
                </mxCell>
                <mxCell id="94" value="" style="edgeStyle=entityRelationEdgeStyle;startArrow=none;endArrow=none;segment=10;curved=1;exitX=1;exitY=1;exitDx=0;exitDy=0;fillColor=#647687;strokeColor=#314354;shadow=1;fontColor=#CCCCCC;sketch=0;entryX=0;entryY=0.5;entryDx=0;entryDy=0;" parent="1" source="8" target="93" edge="1">
                    <mxGeometry relative="1" as="geometry">
                        <mxPoint x="410.9619407771256" y="-446.21320343559637" as="sourcePoint"/>
                    </mxGeometry>
                </mxCell>
                <mxCell id="104" value="https" style="whiteSpace=wrap;html=1;rounded=1;arcSize=50;align=center;verticalAlign=middle;strokeWidth=1;autosize=1;spacing=4;treeFolding=1;treeMoving=1;newEdgeStyle={&quot;edgeStyle&quot;:&quot;entityRelationEdgeStyle&quot;,&quot;startArrow&quot;:&quot;none&quot;,&quot;endArrow&quot;:&quot;none&quot;,&quot;segment&quot;:10,&quot;curved&quot;:1};fillColor=#647687;fontColor=#CCCCCC;strokeColor=#314354;shadow=1;sketch=0;" parent="1" vertex="1">
                    <mxGeometry x="190" y="-590" width="85" height="40" as="geometry"/>
                </mxCell>
                <mxCell id="105" value="" style="edgeStyle=entityRelationEdgeStyle;startArrow=none;endArrow=none;segment=10;curved=1;exitX=0;exitY=0.5;exitDx=0;exitDy=0;fillColor=#647687;strokeColor=#314354;shadow=1;fontColor=#CCCCCC;sketch=0;entryX=1;entryY=0.5;entryDx=0;entryDy=0;" parent="1" source="8" target="104" edge="1">
                    <mxGeometry relative="1" as="geometry">
                        <mxPoint x="340" y="-445" as="sourcePoint"/>
                    </mxGeometry>
                </mxCell>
                <mxCell id="106" value="&lt;pre style=&quot;box-sizing: border-box ; font-family: , , &amp;quot;sf mono&amp;quot; , &amp;quot;menlo&amp;quot; , &amp;quot;consolas&amp;quot; , &amp;quot;liberation mono&amp;quot; , monospace ; font-size: 13.6px ; margin-top: 0px ; margin-bottom: 0px ; overflow-wrap: normal ; padding: 16px ; overflow: auto ; line-height: 1.45 ; border-radius: 6px ; word-break: normal ; color: rgb(201 , 209 , 217)&quot;&gt;Certificates&lt;/pre&gt;" style="whiteSpace=wrap;html=1;rounded=1;arcSize=50;align=center;verticalAlign=middle;strokeWidth=1;autosize=1;spacing=4;treeFolding=1;treeMoving=1;newEdgeStyle={&quot;edgeStyle&quot;:&quot;entityRelationEdgeStyle&quot;,&quot;startArrow&quot;:&quot;none&quot;,&quot;endArrow&quot;:&quot;none&quot;,&quot;segment&quot;:10,&quot;curved&quot;:1};fillColor=#647687;fontColor=#CCCCCC;strokeColor=#314354;shadow=1;sketch=0;" vertex="1" parent="1">
                    <mxGeometry x="318" y="-380" width="138" height="41" as="geometry"/>
                </mxCell>
                <mxCell id="107" value="" style="edgeStyle=entityRelationEdgeStyle;startArrow=none;endArrow=none;segment=10;curved=1;exitX=0.5;exitY=1;exitDx=0;exitDy=0;fillColor=#647687;strokeColor=#314354;fontColor=#CCCCCC;shadow=1;sketch=0;entryX=0.5;entryY=0;entryDx=0;entryDy=0;" edge="1" parent="1" target="106" source="8">
                    <mxGeometry relative="1" as="geometry">
                        <mxPoint x="547" y="-554" as="sourcePoint"/>
                    </mxGeometry>
                </mxCell>
                <mxCell id="108" value="CA&lt;br&gt;Certificate Authority" style="whiteSpace=wrap;html=1;rounded=1;arcSize=50;align=center;verticalAlign=middle;strokeWidth=1;autosize=1;spacing=4;treeFolding=1;treeMoving=1;newEdgeStyle={&quot;edgeStyle&quot;:&quot;entityRelationEdgeStyle&quot;,&quot;startArrow&quot;:&quot;none&quot;,&quot;endArrow&quot;:&quot;none&quot;,&quot;segment&quot;:10,&quot;curved&quot;:1};fillColor=#647687;fontColor=#CCCCCC;strokeColor=#314354;shadow=1;sketch=0;" vertex="1" parent="1">
                    <mxGeometry x="485" y="-320" width="125" height="40" as="geometry"/>
                </mxCell>
                <mxCell id="109" value="" style="edgeStyle=entityRelationEdgeStyle;startArrow=none;endArrow=none;segment=10;curved=1;fillColor=#647687;strokeColor=#314354;shadow=1;fontColor=#CCCCCC;sketch=0;entryX=0.5;entryY=0;entryDx=0;entryDy=0;" edge="1" parent="1" target="108" source="106">
                    <mxGeometry relative="1" as="geometry">
                        <mxPoint x="435" y="-290" as="sourcePoint"/>
                    </mxGeometry>
                </mxCell>
                <mxCell id="110" value="Self-signed Certificate" style="whiteSpace=wrap;html=1;fillColor=#647687;strokeColor=#314354;fontColor=#CCCCCC;rounded=1;arcSize=50;strokeWidth=1;spacing=4;shadow=1;sketch=0;" vertex="1" parent="1">
                    <mxGeometry x="340" y="-260" width="105" height="40" as="geometry"/>
                </mxCell>
                <mxCell id="112" value="" style="edgeStyle=entityRelationEdgeStyle;startArrow=none;endArrow=none;segment=10;curved=1;fillColor=#647687;strokeColor=#314354;shadow=1;fontColor=#CCCCCC;sketch=0;entryX=0.567;entryY=-0.071;entryDx=0;entryDy=0;exitX=0.428;exitY=1.073;exitDx=0;exitDy=0;exitPerimeter=0;entryPerimeter=0;" edge="1" parent="1" source="106" target="110">
                    <mxGeometry relative="1" as="geometry">
                        <mxPoint x="466" y="-349.5" as="sourcePoint"/>
                        <mxPoint x="587" y="-300" as="targetPoint"/>
                    </mxGeometry>
                </mxCell>
                <mxCell id="113" value="" style="edgeStyle=entityRelationEdgeStyle;startArrow=none;endArrow=none;segment=10;curved=1;fillColor=#647687;strokeColor=#314354;shadow=1;fontColor=#CCCCCC;sketch=0;entryX=0;entryY=0.5;entryDx=0;entryDy=0;exitX=1;exitY=0.5;exitDx=0;exitDy=0;" edge="1" parent="1" source="110" target="108">
                    <mxGeometry relative="1" as="geometry">
                        <mxPoint x="476" y="-339.5" as="sourcePoint"/>
                        <mxPoint x="597" y="-290" as="targetPoint"/>
                    </mxGeometry>
                </mxCell>
                <mxCell id="114" value="" style="edgeStyle=entityRelationEdgeStyle;startArrow=none;endArrow=none;segment=10;curved=1;fillColor=#647687;strokeColor=#314354;shadow=1;fontColor=#CCCCCC;sketch=0;entryX=0;entryY=0.5;entryDx=0;entryDy=0;exitX=1;exitY=0.5;exitDx=0;exitDy=0;" edge="1" parent="1" source="88" target="110">
                    <mxGeometry relative="1" as="geometry">
                        <mxPoint x="486" y="-329.5" as="sourcePoint"/>
                        <mxPoint x="607" y="-280" as="targetPoint"/>
                    </mxGeometry>
                </mxCell>
                <mxCell id="115" value="SNI" style="whiteSpace=wrap;html=1;rounded=1;arcSize=50;align=center;verticalAlign=middle;strokeWidth=1;autosize=1;spacing=4;treeFolding=1;treeMoving=1;newEdgeStyle={&quot;edgeStyle&quot;:&quot;entityRelationEdgeStyle&quot;,&quot;startArrow&quot;:&quot;none&quot;,&quot;endArrow&quot;:&quot;none&quot;,&quot;segment&quot;:10,&quot;curved&quot;:1};fillColor=#647687;fontColor=#CCCCCC;strokeColor=#314354;shadow=1;sketch=0;" vertex="1" parent="1">
                    <mxGeometry x="189.99999999999994" y="-460" width="60" height="30" as="geometry"/>
                </mxCell>
                <mxCell id="116" value="" style="edgeStyle=entityRelationEdgeStyle;startArrow=none;endArrow=none;segment=10;curved=1;exitX=0;exitY=1;exitDx=0;exitDy=0;fillColor=#647687;strokeColor=#314354;shadow=1;fontColor=#CCCCCC;sketch=0;entryX=1;entryY=0.5;entryDx=0;entryDy=0;" edge="1" parent="1" target="115" source="8">
                    <mxGeometry relative="1" as="geometry">
                        <mxPoint x="446.00194077712564" y="-363.78679656440363" as="sourcePoint"/>
                    </mxGeometry>
                </mxCell>
            </root>
        </mxGraphModel>
    </diagram>
</mxfile>